solid OpenSCAD_Model
  facet normal 0 1 -0
    outer loop
      vertex 33.5 0 0
      vertex 30.5 0 9
      vertex 33.5 0 9
    endloop
  endfacet
  facet normal 0 1 0
    outer loop
      vertex 30.5 0 9
      vertex 33.5 0 0
      vertex 30.5 0 0
    endloop
  endfacet
  facet normal 0.60181 -0.79864 0
    outer loop
      vertex 24.3175 18.3245 0
      vertex 26.7094 20.1269 3
      vertex 24.3175 18.3245 3
    endloop
  endfacet
  facet normal 0.60181 -0.79864 0
    outer loop
      vertex 26.7094 20.1269 3
      vertex 24.3175 18.3245 0
      vertex 26.7094 20.1269 0
    endloop
  endfacet
  facet normal -0.95106 -0.309007 0
    outer loop
      vertex 32.7679 6.96504 0
      vertex 30.6038 13.6257 9
      vertex 30.6038 13.6257 0
    endloop
  endfacet
  facet normal -0.95106 -0.309007 0
    outer loop
      vertex 30.6038 13.6257 9
      vertex 32.7679 6.96504 0
      vertex 32.7679 6.96504 9
    endloop
  endfacet
  facet normal -0.994521 -0.104535 0
    outer loop
      vertex 33.5 0 0
      vertex 32.7679 6.96504 9
      vertex 32.7679 6.96504 0
    endloop
  endfacet
  facet normal -0.994521 -0.104535 0
    outer loop
      vertex 32.7679 6.96504 9
      vertex 33.5 0 0
      vertex 33.5 0 9
    endloop
  endfacet
  facet normal -0.866025 -0.500001 0
    outer loop
      vertex 30.6038 13.6257 0
      vertex 27.1021 19.6908 9
      vertex 27.1021 19.6908 0
    endloop
  endfacet
  facet normal -0.866025 -0.500001 0
    outer loop
      vertex 27.1021 19.6908 9
      vertex 30.6038 13.6257 0
      vertex 30.6038 13.6257 9
    endloop
  endfacet
  facet normal -0.743151 -0.669124 0
    outer loop
      vertex 26.7094 20.1269 3
      vertex 22.4159 24.8954 9
      vertex 22.4159 24.8954 3
    endloop
  endfacet
  facet normal -0.743148 -0.669127 4.63105e-06
    outer loop
      vertex 26.7094 20.1269 3
      vertex 27.1021 19.6908 9
      vertex 22.4159 24.8954 9
    endloop
  endfacet
  facet normal -0.743116 -0.669162 -0
    outer loop
      vertex 27.1021 19.6908 9
      vertex 26.7094 20.1269 3
      vertex 27.1021 19.6908 0
    endloop
  endfacet
  facet normal -0.743116 -0.669162 0
    outer loop
      vertex 26.7094 20.1269 0
      vertex 27.1021 19.6908 0
      vertex 26.7094 20.1269 3
    endloop
  endfacet
  facet normal -0.866027 -0.499997 0
    outer loop
      vertex -15.25 26.4138 0
      vertex -16.75 29.0119 9
      vertex -16.75 29.0119 0
    endloop
  endfacet
  facet normal -0.866027 -0.499997 0
    outer loop
      vertex -16.75 29.0119 9
      vertex -15.25 26.4138 0
      vertex -15.25 26.4138 9
    endloop
  endfacet
  facet normal 0.390733 0.920504 -0
    outer loop
      vertex -28.0283 11.8973 0
      vertex -30.7851 13.0675 3
      vertex -28.0283 11.8973 3
    endloop
  endfacet
  facet normal 0.390733 0.920504 0
    outer loop
      vertex -30.7851 13.0675 3
      vertex -28.0283 11.8973 0
      vertex -30.7851 13.0675 0
    endloop
  endfacet
  facet normal 0.743148 -0.669127 0
    outer loop
      vertex -27.1021 19.6908 9
      vertex -22.4159 24.8954 0
      vertex -22.4159 24.8954 9
    endloop
  endfacet
  facet normal 0.743148 -0.669127 0
    outer loop
      vertex -22.4159 24.8954 0
      vertex -27.1021 19.6908 9
      vertex -27.1021 19.6908 0
    endloop
  endfacet
  facet normal 0.587784 -0.809018 0
    outer loop
      vertex -22.4159 24.8954 0
      vertex -16.75 29.0119 9
      vertex -22.4159 24.8954 9
    endloop
  endfacet
  facet normal 0.587784 -0.809018 0
    outer loop
      vertex -16.75 29.0119 9
      vertex -22.4159 24.8954 0
      vertex -16.75 29.0119 0
    endloop
  endfacet
  facet normal 0.866025 -0.500001 0
    outer loop
      vertex -30.6038 13.6257 9
      vertex -27.1021 19.6908 0
      vertex -27.1021 19.6908 9
    endloop
  endfacet
  facet normal 0.866025 -0.500001 0
    outer loop
      vertex -27.1021 19.6908 0
      vertex -30.6038 13.6257 9
      vertex -30.6038 13.6257 0
    endloop
  endfacet
  facet normal 0.951092 -0.308909 0
    outer loop
      vertex -30.6038 13.6257 9
      vertex -30.7851 13.0675 3
      vertex -30.6038 13.6257 0
    endloop
  endfacet
  facet normal 0.95106 -0.309007 1.00656e-05
    outer loop
      vertex -32.7679 6.96504 9
      vertex -30.7851 13.0675 3
      vertex -30.6038 13.6257 9
    endloop
  endfacet
  facet normal 0.951057 -0.309016 0
    outer loop
      vertex -30.7851 13.0675 3
      vertex -32.7679 6.96504 9
      vertex -32.7679 6.96504 3
    endloop
  endfacet
  facet normal 0.951092 -0.308909 0
    outer loop
      vertex -30.6038 13.6257 0
      vertex -30.7851 13.0675 3
      vertex -30.7851 13.0675 0
    endloop
  endfacet
  facet normal 0.866027 -0.499997 0
    outer loop
      vertex -16.75 -29.0119 9
      vertex -15.25 -26.4138 0
      vertex -15.25 -26.4138 9
    endloop
  endfacet
  facet normal 0.866027 -0.499997 0
    outer loop
      vertex -15.25 -26.4138 0
      vertex -16.75 -29.0119 9
      vertex -16.75 -29.0119 0
    endloop
  endfacet
  facet normal -0.992546 -0.121869 0
    outer loop
      vertex 4.07577 -33.1945 0
      vertex 3.71077 -30.2218 3
      vertex 3.71077 -30.2218 0
    endloop
  endfacet
  facet normal -0.992546 -0.121869 0
    outer loop
      vertex 3.71077 -30.2218 3
      vertex 4.07577 -33.1945 0
      vertex 4.07577 -33.1945 3
    endloop
  endfacet
  facet normal 0.207912 0.978148 -0
    outer loop
      vertex -3.5017 -33.3165 0
      vertex -10.3521 -31.8604 9
      vertex -3.5017 -33.3165 9
    endloop
  endfacet
  facet normal 0.207912 0.978148 0
    outer loop
      vertex -10.3521 -31.8604 9
      vertex -3.5017 -33.3165 0
      vertex -10.3521 -31.8604 0
    endloop
  endfacet
  facet normal 0.406733 0.913547 -0
    outer loop
      vertex -10.3521 -31.8604 0
      vertex -16.75 -29.0119 9
      vertex -10.3521 -31.8604 9
    endloop
  endfacet
  facet normal 0.406733 0.913547 0
    outer loop
      vertex -16.75 -29.0119 9
      vertex -10.3521 -31.8604 0
      vertex -16.75 -29.0119 0
    endloop
  endfacet
  facet normal 0 1 -0
    outer loop
      vertex 3.5017 -33.3165 0
      vertex -3.5017 -33.3165 9
      vertex 3.5017 -33.3165 9
    endloop
  endfacet
  facet normal 0 1 0
    outer loop
      vertex -3.5017 -33.3165 9
      vertex 3.5017 -33.3165 0
      vertex -3.5017 -33.3165 0
    endloop
  endfacet
  facet normal -0.207915 0.978147 0
    outer loop
      vertex 4.07577 -33.1945 3
      vertex 10.3521 -31.8604 9
      vertex 10.3521 -31.8604 3
    endloop
  endfacet
  facet normal -0.207912 0.978148 -3.67741e-06
    outer loop
      vertex 10.3521 -31.8604 9
      vertex 4.07577 -33.1945 3
      vertex 3.5017 -33.3165 9
    endloop
  endfacet
  facet normal -0.207875 0.978155 0
    outer loop
      vertex 3.5017 -33.3165 0
      vertex 4.07577 -33.1945 3
      vertex 4.07577 -33.1945 0
    endloop
  endfacet
  facet normal -0.207875 0.978155 0
    outer loop
      vertex 4.07577 -33.1945 3
      vertex 3.5017 -33.3165 0
      vertex 3.5017 -33.3165 9
    endloop
  endfacet
  facet normal -0.951056 -0.309019 0
    outer loop
      vertex -33.3444 -14.8459 0
      vertex -35.7024 -7.58878 12
      vertex -35.7024 -7.58878 0
    endloop
  endfacet
  facet normal -0.951056 -0.309019 0
    outer loop
      vertex -35.7024 -7.58878 12
      vertex -33.3444 -14.8459 0
      vertex -33.3444 -14.8459 12
    endloop
  endfacet
  facet normal 0.951056 0.309019 0
    outer loop
      vertex 35.7024 7.58878 12
      vertex 33.3444 14.8459 0
      vertex 33.3444 14.8459 12
    endloop
  endfacet
  facet normal 0.951056 0.309019 0
    outer loop
      vertex 33.3444 14.8459 0
      vertex 35.7024 7.58878 12
      vertex 35.7024 7.58878 0
    endloop
  endfacet
  facet normal 0.994522 0.104527 0
    outer loop
      vertex 36.5 0 12
      vertex 35.7024 7.58878 0
      vertex 35.7024 7.58878 12
    endloop
  endfacet
  facet normal 0.994522 0.104527 0
    outer loop
      vertex 35.7024 7.58878 0
      vertex 36.5 0 12
      vertex 36.5 0 0
    endloop
  endfacet
  facet normal 0.866026 0.5 0
    outer loop
      vertex 33.3444 14.8459 12
      vertex 29.5291 21.4542 0
      vertex 29.5291 21.4542 12
    endloop
  endfacet
  facet normal 0.866026 0.5 0
    outer loop
      vertex 29.5291 21.4542 0
      vertex 33.3444 14.8459 12
      vertex 33.3444 14.8459 0
    endloop
  endfacet
  facet normal -0.866026 0.5 0
    outer loop
      vertex -33.3444 14.8459 0
      vertex -29.5291 21.4542 12
      vertex -29.5291 21.4542 0
    endloop
  endfacet
  facet normal -0.866026 0.5 0
    outer loop
      vertex -29.5291 21.4542 12
      vertex -33.3444 14.8459 0
      vertex -33.3444 14.8459 12
    endloop
  endfacet
  facet normal 0 0 -1
    outer loop
      vertex -29.8335 6.34131 0
      vertex -30.7851 13.0675 0
      vertex -28.0283 11.8973 0
    endloop
  endfacet
  facet normal 0 0 -1
    outer loop
      vertex -35.7024 7.58878 0
      vertex -29.8335 6.34131 0
      vertex -30.5 0 0
    endloop
  endfacet
  facet normal 0 0 -1
    outer loop
      vertex 33.5 0 0
      vertex 36.5 0 0
      vertex 35.7024 -7.58878 0
    endloop
  endfacet
  facet normal 0 0 -1
    outer loop
      vertex 36.5 0 0
      vertex 33.5 0 0
      vertex 35.7024 7.58878 0
    endloop
  endfacet
  facet normal 0 0 -1
    outer loop
      vertex 29.8335 -6.34131 0
      vertex 35.7024 -7.58878 0
      vertex 33.3444 -14.8459 0
    endloop
  endfacet
  facet normal 0 0 -1
    outer loop
      vertex 35.7024 -7.58878 0
      vertex 29.8335 -6.34131 0
      vertex 33.5 0 0
    endloop
  endfacet
  facet normal -0 0 -1
    outer loop
      vertex 33.5 0 0
      vertex 29.8335 -6.34131 0
      vertex 30.5 0 0
    endloop
  endfacet
  facet normal 0 0 -1
    outer loop
      vertex 27.8631 -12.4055 0
      vertex 33.3444 -14.8459 0
      vertex 29.5291 -21.4542 0
    endloop
  endfacet
  facet normal 0 0 -1
    outer loop
      vertex 33.3444 -14.8459 0
      vertex 27.8631 -12.4055 0
      vertex 29.8335 -6.34131 0
    endloop
  endfacet
  facet normal 0 0 -1
    outer loop
      vertex 29.5291 -21.4542 0
      vertex 24.675 -17.9275 0
      vertex 27.8631 -12.4055 0
    endloop
  endfacet
  facet normal 0 0 -1
    outer loop
      vertex 24.4233 -27.1248 0
      vertex 24.675 -17.9275 0
      vertex 29.5291 -21.4542 0
    endloop
  endfacet
  facet normal 0 0 -1
    outer loop
      vertex 24.4233 -27.1248 0
      vertex 20.4085 -22.6659 0
      vertex 24.675 -17.9275 0
    endloop
  endfacet
  facet normal 0 0 -1
    outer loop
      vertex 18.25 -31.6099 0
      vertex 20.4085 -22.6659 0
      vertex 24.4233 -27.1248 0
    endloop
  endfacet
  facet normal 0 0 -1
    outer loop
      vertex 18.25 -31.6099 0
      vertex 15.25 -26.4138 0
      vertex 20.4085 -22.6659 0
    endloop
  endfacet
  facet normal 0 0 -1
    outer loop
      vertex 11.2791 -34.7136 0
      vertex 15.25 -26.4138 0
      vertex 18.25 -31.6099 0
    endloop
  endfacet
  facet normal 0 0 -1
    outer loop
      vertex 11.2791 -34.7136 0
      vertex 9.42502 -29.0072 0
      vertex 15.25 -26.4138 0
    endloop
  endfacet
  facet normal 0 0 -1
    outer loop
      vertex 11.2791 -34.7136 0
      vertex 4.07577 -33.1945 0
      vertex 9.42502 -29.0072 0
    endloop
  endfacet
  facet normal 0 0 -1
    outer loop
      vertex 3.81529 -36.3 0
      vertex 4.07577 -33.1945 0
      vertex 11.2791 -34.7136 0
    endloop
  endfacet
  facet normal 0 0 -1
    outer loop
      vertex 3.81529 -36.3 0
      vertex 3.5017 -33.3165 0
      vertex 4.07577 -33.1945 0
    endloop
  endfacet
  facet normal 0 0 -1
    outer loop
      vertex 3.81529 -36.3 0
      vertex -3.5017 -33.3165 0
      vertex 3.5017 -33.3165 0
    endloop
  endfacet
  facet normal 0 0 -1
    outer loop
      vertex -3.81529 -36.3 0
      vertex -3.5017 -33.3165 0
      vertex 3.81529 -36.3 0
    endloop
  endfacet
  facet normal 0 0 -1
    outer loop
      vertex -3.81529 -36.3 0
      vertex -10.3521 -31.8604 0
      vertex -3.5017 -33.3165 0
    endloop
  endfacet
  facet normal 0 0 -1
    outer loop
      vertex -11.2791 -34.7136 0
      vertex -10.3521 -31.8604 0
      vertex -3.81529 -36.3 0
    endloop
  endfacet
  facet normal 0 0 -1
    outer loop
      vertex -11.2791 -34.7136 0
      vertex -16.75 -29.0119 0
      vertex -10.3521 -31.8604 0
    endloop
  endfacet
  facet normal 0 -0 -1
    outer loop
      vertex -16.75 -29.0119 0
      vertex -11.2791 -34.7136 0
      vertex -18.25 -31.6099 0
    endloop
  endfacet
  facet normal 0 0 -1
    outer loop
      vertex 32.7679 6.96504 0
      vertex 35.7024 7.58878 0
      vertex 33.5 0 0
    endloop
  endfacet
  facet normal -0 0 -1
    outer loop
      vertex 35.7024 7.58878 0
      vertex 32.7679 6.96504 0
      vertex 33.3444 14.8459 0
    endloop
  endfacet
  facet normal 0 0 -1
    outer loop
      vertex 30.6038 13.6257 0
      vertex 33.3444 14.8459 0
      vertex 32.7679 6.96504 0
    endloop
  endfacet
  facet normal 0 0 -1
    outer loop
      vertex 30.6038 13.6257 0
      vertex 29.5291 21.4542 0
      vertex 33.3444 14.8459 0
    endloop
  endfacet
  facet normal 0 0 -1
    outer loop
      vertex 27.1021 19.6908 0
      vertex 29.5291 21.4542 0
      vertex 30.6038 13.6257 0
    endloop
  endfacet
  facet normal 0 0 -1
    outer loop
      vertex 26.7094 20.1269 0
      vertex 29.5291 21.4542 0
      vertex 27.1021 19.6908 0
    endloop
  endfacet
  facet normal 0 0 -1
    outer loop
      vertex 26.7094 20.1269 0
      vertex 24.4233 27.1248 0
      vertex 29.5291 21.4542 0
    endloop
  endfacet
  facet normal 0 0 -1
    outer loop
      vertex 20.4085 22.6659 0
      vertex 26.7094 20.1269 0
      vertex 24.3175 18.3245 0
    endloop
  endfacet
  facet normal 0 0 -1
    outer loop
      vertex 26.7094 20.1269 0
      vertex 20.4085 22.6659 0
      vertex 24.4233 27.1248 0
    endloop
  endfacet
  facet normal 0 0 -1
    outer loop
      vertex 20.4085 22.6659 0
      vertex 18.25 31.6099 0
      vertex 24.4233 27.1248 0
    endloop
  endfacet
  facet normal 0 0 -1
    outer loop
      vertex 15.25 26.4138 0
      vertex 18.25 31.6099 0
      vertex 20.4085 22.6659 0
    endloop
  endfacet
  facet normal 0 0 -1
    outer loop
      vertex 15.25 26.4138 0
      vertex 11.2791 34.7136 0
      vertex 18.25 31.6099 0
    endloop
  endfacet
  facet normal 0 0 -1
    outer loop
      vertex 9.42502 29.0072 0
      vertex 11.2791 34.7136 0
      vertex 15.25 26.4138 0
    endloop
  endfacet
  facet normal 0 0 -1
    outer loop
      vertex 9.42502 29.0072 0
      vertex 3.81529 36.3 0
      vertex 11.2791 34.7136 0
    endloop
  endfacet
  facet normal 0 0 -1
    outer loop
      vertex 3.18812 30.3329 0
      vertex 3.81529 36.3 0
      vertex 9.42502 29.0072 0
    endloop
  endfacet
  facet normal 0 0 -1
    outer loop
      vertex -3.18812 30.3329 0
      vertex 3.81529 36.3 0
      vertex 3.18812 30.3329 0
    endloop
  endfacet
  facet normal 0 0 -1
    outer loop
      vertex -3.18812 30.3329 0
      vertex -3.81529 36.3 0
      vertex 3.81529 36.3 0
    endloop
  endfacet
  facet normal 0 0 -1
    outer loop
      vertex -9.42502 29.0072 0
      vertex -3.81529 36.3 0
      vertex -3.18812 30.3329 0
    endloop
  endfacet
  facet normal 0 0 -1
    outer loop
      vertex -9.42502 29.0072 0
      vertex -11.2791 34.7136 0
      vertex -3.81529 36.3 0
    endloop
  endfacet
  facet normal 0 0 -1
    outer loop
      vertex -16.75 29.0119 0
      vertex -9.42502 29.0072 0
      vertex -15.25 26.4138 0
    endloop
  endfacet
  facet normal 0 0 -1
    outer loop
      vertex -9.42502 29.0072 0
      vertex -16.75 29.0119 0
      vertex -11.2791 34.7136 0
    endloop
  endfacet
  facet normal 0 0 -1
    outer loop
      vertex -16.75 29.0119 0
      vertex -18.25 31.6099 0
      vertex -11.2791 34.7136 0
    endloop
  endfacet
  facet normal 0 0 -1
    outer loop
      vertex -22.4159 24.8954 0
      vertex -18.25 31.6099 0
      vertex -16.75 29.0119 0
    endloop
  endfacet
  facet normal 0 0 -1
    outer loop
      vertex -22.4159 24.8954 0
      vertex -24.4233 27.1248 0
      vertex -18.25 31.6099 0
    endloop
  endfacet
  facet normal 0 0 -1
    outer loop
      vertex -27.1021 19.6908 0
      vertex -24.4233 27.1248 0
      vertex -22.4159 24.8954 0
    endloop
  endfacet
  facet normal 0 0 -1
    outer loop
      vertex -27.1021 19.6908 0
      vertex -29.5291 21.4542 0
      vertex -24.4233 27.1248 0
    endloop
  endfacet
  facet normal 0 0 -1
    outer loop
      vertex -30.6038 13.6257 0
      vertex -29.5291 21.4542 0
      vertex -27.1021 19.6908 0
    endloop
  endfacet
  facet normal 0 0 -1
    outer loop
      vertex -33.3444 14.8459 0
      vertex -30.6038 13.6257 0
      vertex -30.7851 13.0675 0
    endloop
  endfacet
  facet normal 0 0 -1
    outer loop
      vertex -30.6038 13.6257 0
      vertex -33.3444 14.8459 0
      vertex -29.5291 21.4542 0
    endloop
  endfacet
  facet normal 0 0 -1
    outer loop
      vertex -29.8335 6.34131 0
      vertex -33.3444 14.8459 0
      vertex -30.7851 13.0675 0
    endloop
  endfacet
  facet normal 0 0 -1
    outer loop
      vertex -36.5 0 0
      vertex -30.5 0 0
      vertex -35.7024 -7.58878 0
    endloop
  endfacet
  facet normal 0 0 -1
    outer loop
      vertex -29.8335 6.34131 0
      vertex -35.7024 7.58878 0
      vertex -33.3444 14.8459 0
    endloop
  endfacet
  facet normal 0 0 -1
    outer loop
      vertex -30.5 0 0
      vertex -36.5 0 0
      vertex -35.7024 7.58878 0
    endloop
  endfacet
  facet normal 0 0 -1
    outer loop
      vertex 9.42502 -29.0072 0
      vertex 4.07577 -33.1945 0
      vertex 3.71077 -30.2218 0
    endloop
  endfacet
  facet normal 0 0 -1
    outer loop
      vertex -16.75 -29.0119 0
      vertex -20.4085 -22.6659 0
      vertex -15.25 -26.4138 0
    endloop
  endfacet
  facet normal 0 0 -1
    outer loop
      vertex -24.4233 -27.1248 0
      vertex -16.75 -29.0119 0
      vertex -18.25 -31.6099 0
    endloop
  endfacet
  facet normal 0 0 -1
    outer loop
      vertex -16.75 -29.0119 0
      vertex -24.4233 -27.1248 0
      vertex -20.4085 -22.6659 0
    endloop
  endfacet
  facet normal 0 0 -1
    outer loop
      vertex -24.4233 -27.1248 0
      vertex -24.675 -17.9275 0
      vertex -20.4085 -22.6659 0
    endloop
  endfacet
  facet normal 0 0 -1
    outer loop
      vertex -29.5291 -21.4542 0
      vertex -24.675 -17.9275 0
      vertex -24.4233 -27.1248 0
    endloop
  endfacet
  facet normal -0 0 -1
    outer loop
      vertex -24.675 -17.9275 0
      vertex -29.5291 -21.4542 0
      vertex -27.8631 -12.4055 0
    endloop
  endfacet
  facet normal 0 0 -1
    outer loop
      vertex -33.3444 -14.8459 0
      vertex -27.8631 -12.4055 0
      vertex -29.5291 -21.4542 0
    endloop
  endfacet
  facet normal -0 0 -1
    outer loop
      vertex -27.8631 -12.4055 0
      vertex -33.3444 -14.8459 0
      vertex -29.8335 -6.34131 0
    endloop
  endfacet
  facet normal -0 0 -1
    outer loop
      vertex -29.8335 -6.34131 0
      vertex -35.7024 -7.58878 0
      vertex -30.5 0 0
    endloop
  endfacet
  facet normal 0 0 -1
    outer loop
      vertex -35.7024 -7.58878 0
      vertex -29.8335 -6.34131 0
      vertex -33.3444 -14.8459 0
    endloop
  endfacet
  facet normal 0.58778 -0.809021 0
    outer loop
      vertex 18.25 -31.6099 0
      vertex 24.4233 -27.1248 12
      vertex 18.25 -31.6099 12
    endloop
  endfacet
  facet normal 0.58778 -0.809021 0
    outer loop
      vertex 24.4233 -27.1248 12
      vertex 18.25 -31.6099 0
      vertex 24.4233 -27.1248 0
    endloop
  endfacet
  facet normal 0.406743 0.913543 -0
    outer loop
      vertex 18.25 31.6099 0
      vertex 11.2791 34.7136 12
      vertex 18.25 31.6099 12
    endloop
  endfacet
  facet normal 0.406743 0.913543 0
    outer loop
      vertex 11.2791 34.7136 12
      vertex 18.25 31.6099 0
      vertex 11.2791 34.7136 0
    endloop
  endfacet
  facet normal 0.994522 -0.104527 0
    outer loop
      vertex 35.7024 -7.58878 12
      vertex 36.5 0 0
      vertex 36.5 0 12
    endloop
  endfacet
  facet normal 0.994522 -0.104527 0
    outer loop
      vertex 36.5 0 0
      vertex 35.7024 -7.58878 12
      vertex 35.7024 -7.58878 0
    endloop
  endfacet
  facet normal -0.743147 -0.669128 0
    outer loop
      vertex -24.4233 -27.1248 0
      vertex -29.5291 -21.4542 12
      vertex -29.5291 -21.4542 0
    endloop
  endfacet
  facet normal -0.743147 -0.669128 0
    outer loop
      vertex -29.5291 -21.4542 12
      vertex -24.4233 -27.1248 0
      vertex -24.4233 -27.1248 12
    endloop
  endfacet
  facet normal 0.743147 0.669128 0
    outer loop
      vertex 29.5291 21.4542 12
      vertex 24.4233 27.1248 0
      vertex 24.4233 27.1248 12
    endloop
  endfacet
  facet normal 0.743147 0.669128 0
    outer loop
      vertex 24.4233 27.1248 0
      vertex 29.5291 21.4542 12
      vertex 29.5291 21.4542 0
    endloop
  endfacet
  facet normal -0.743147 0.669128 0
    outer loop
      vertex -29.5291 21.4542 0
      vertex -24.4233 27.1248 12
      vertex -24.4233 27.1248 0
    endloop
  endfacet
  facet normal -0.743147 0.669128 0
    outer loop
      vertex -24.4233 27.1248 12
      vertex -29.5291 21.4542 0
      vertex -29.5291 21.4542 12
    endloop
  endfacet
  facet normal 0.743147 -0.669128 0
    outer loop
      vertex 24.4233 -27.1248 12
      vertex 29.5291 -21.4542 0
      vertex 29.5291 -21.4542 12
    endloop
  endfacet
  facet normal 0.743147 -0.669128 0
    outer loop
      vertex 29.5291 -21.4542 0
      vertex 24.4233 -27.1248 12
      vertex 24.4233 -27.1248 0
    endloop
  endfacet
  facet normal -0.994522 0.104527 0
    outer loop
      vertex -36.5 0 0
      vertex -35.7024 7.58878 12
      vertex -35.7024 7.58878 0
    endloop
  endfacet
  facet normal -0.994522 0.104527 0
    outer loop
      vertex -35.7024 7.58878 12
      vertex -36.5 0 0
      vertex -36.5 0 12
    endloop
  endfacet
  facet normal -0 0 1
    outer loop
      vertex -32.7679 6.96504 3
      vertex -29.8335 6.34131 3
      vertex -30.7851 13.0675 3
    endloop
  endfacet
  facet normal 0 0 1
    outer loop
      vertex -30.7851 13.0675 3
      vertex -29.8335 6.34131 3
      vertex -28.0283 11.8973 3
    endloop
  endfacet
  facet normal 0 0 1
    outer loop
      vertex -29.8335 -6.34131 3
      vertex -32.4058 -8.07967 3
      vertex -29.5038 -7.35612 3
    endloop
  endfacet
  facet normal 0 0 1
    outer loop
      vertex -32.7679 -6.96504 3
      vertex -29.8335 -6.34131 3
      vertex -30.5 0 3
    endloop
  endfacet
  facet normal 0 0 1
    outer loop
      vertex -29.8335 6.34131 3
      vertex -32.7679 6.96504 3
      vertex -30.5 0 3
    endloop
  endfacet
  facet normal -0 0 1
    outer loop
      vertex -33.5 3.34862e-07 3
      vertex -30.5 0 3
      vertex -32.7679 6.96504 3
    endloop
  endfacet
  facet normal 0 -0 1
    outer loop
      vertex -32.7679 -6.96504 3
      vertex -30.5 0 3
      vertex -33.5 3.34862e-07 3
    endloop
  endfacet
  facet normal 0 0 1
    outer loop
      vertex -29.8335 -6.34131 3
      vertex -32.7679 -6.96504 3
      vertex -32.4058 -8.07967 3
    endloop
  endfacet
  facet normal -0 0 1
    outer loop
      vertex 20.4085 22.6659 3
      vertex 26.7094 20.1269 3
      vertex 22.4159 24.8954 3
    endloop
  endfacet
  facet normal 0 0 1
    outer loop
      vertex 26.7094 20.1269 3
      vertex 20.4085 22.6659 3
      vertex 24.3175 18.3245 3
    endloop
  endfacet
  facet normal 0 0 1
    outer loop
      vertex 16.75 29.0119 3
      vertex 20.4085 22.6659 3
      vertex 22.4159 24.8954 3
    endloop
  endfacet
  facet normal 0 0 1
    outer loop
      vertex 16.75 29.0119 3
      vertex 15.25 26.4138 3
      vertex 20.4085 22.6659 3
    endloop
  endfacet
  facet normal 0 0 1
    outer loop
      vertex 10.3521 31.8604 3
      vertex 15.25 26.4138 3
      vertex 16.75 29.0119 3
    endloop
  endfacet
  facet normal 0 0 1
    outer loop
      vertex 10.3521 31.8604 3
      vertex 9.42502 29.0072 3
      vertex 15.25 26.4138 3
    endloop
  endfacet
  facet normal 0 0 1
    outer loop
      vertex 9.20569 32.1041 3
      vertex 9.42502 29.0072 3
      vertex 10.3521 31.8604 3
    endloop
  endfacet
  facet normal 0 0 1
    outer loop
      vertex 9.42502 29.0072 3
      vertex 9.20569 32.1041 3
      vertex 8.3813 29.2291 3
    endloop
  endfacet
  facet normal -0 0 1
    outer loop
      vertex 20.4085 -22.6659 3
      vertex 23.2001 -24.0244 3
      vertex 21.1225 -21.873 3
    endloop
  endfacet
  facet normal 0 0 1
    outer loop
      vertex 23.2001 -24.0244 3
      vertex 20.4085 -22.6659 3
      vertex 22.4159 -24.8954 3
    endloop
  endfacet
  facet normal 0 0 1
    outer loop
      vertex 20.4085 -22.6659 3
      vertex 16.75 -29.0119 3
      vertex 22.4159 -24.8954 3
    endloop
  endfacet
  facet normal -0 0 1
    outer loop
      vertex 15.25 -26.4138 3
      vertex 16.75 -29.0119 3
      vertex 20.4085 -22.6659 3
    endloop
  endfacet
  facet normal 0 0 1
    outer loop
      vertex 15.25 -26.4138 3
      vertex 10.3521 -31.8604 3
      vertex 16.75 -29.0119 3
    endloop
  endfacet
  facet normal -0 0 1
    outer loop
      vertex 9.42502 -29.0072 3
      vertex 10.3521 -31.8604 3
      vertex 15.25 -26.4138 3
    endloop
  endfacet
  facet normal 0 0 1
    outer loop
      vertex 9.42502 -29.0072 3
      vertex 4.07577 -33.1945 3
      vertex 10.3521 -31.8604 3
    endloop
  endfacet
  facet normal 0 -0 1
    outer loop
      vertex 4.07577 -33.1945 3
      vertex 9.42502 -29.0072 3
      vertex 3.71077 -30.2218 3
    endloop
  endfacet
  facet normal -0.406743 -0.913543 0
    outer loop
      vertex -18.25 -31.6099 0
      vertex -11.2791 -34.7136 12
      vertex -18.25 -31.6099 12
    endloop
  endfacet
  facet normal -0.406743 -0.913543 -0
    outer loop
      vertex -11.2791 -34.7136 12
      vertex -18.25 -31.6099 0
      vertex -11.2791 -34.7136 0
    endloop
  endfacet
  facet normal 0 1 -0
    outer loop
      vertex 3.81529 36.3 0
      vertex -3.81529 36.3 12
      vertex 3.81529 36.3 12
    endloop
  endfacet
  facet normal 0 1 0
    outer loop
      vertex -3.81529 36.3 12
      vertex 3.81529 36.3 0
      vertex -3.81529 36.3 0
    endloop
  endfacet
  facet normal -0.58778 -0.809021 0
    outer loop
      vertex -24.4233 -27.1248 0
      vertex -18.25 -31.6099 12
      vertex -24.4233 -27.1248 12
    endloop
  endfacet
  facet normal -0.58778 -0.809021 -0
    outer loop
      vertex -18.25 -31.6099 12
      vertex -24.4233 -27.1248 0
      vertex -18.25 -31.6099 0
    endloop
  endfacet
  facet normal 0.207901 -0.97815 0
    outer loop
      vertex 3.81529 -36.3 0
      vertex 11.2791 -34.7136 12
      vertex 3.81529 -36.3 12
    endloop
  endfacet
  facet normal 0.207901 -0.97815 0
    outer loop
      vertex 11.2791 -34.7136 12
      vertex 3.81529 -36.3 0
      vertex 11.2791 -34.7136 0
    endloop
  endfacet
  facet normal 0.866026 -0.5 0
    outer loop
      vertex 29.5291 -21.4542 12
      vertex 33.3444 -14.8459 0
      vertex 33.3444 -14.8459 12
    endloop
  endfacet
  facet normal 0.866026 -0.5 0
    outer loop
      vertex 33.3444 -14.8459 0
      vertex 29.5291 -21.4542 12
      vertex 29.5291 -21.4542 0
    endloop
  endfacet
  facet normal -0.58778 0.809021 0
    outer loop
      vertex -18.25 31.6099 0
      vertex -24.4233 27.1248 12
      vertex -18.25 31.6099 12
    endloop
  endfacet
  facet normal -0.58778 0.809021 0
    outer loop
      vertex -24.4233 27.1248 12
      vertex -18.25 31.6099 0
      vertex -24.4233 27.1248 0
    endloop
  endfacet
  facet normal -0.207901 -0.97815 0
    outer loop
      vertex -11.2791 -34.7136 0
      vertex -3.81529 -36.3 12
      vertex -11.2791 -34.7136 12
    endloop
  endfacet
  facet normal -0.207901 -0.97815 -0
    outer loop
      vertex -3.81529 -36.3 12
      vertex -11.2791 -34.7136 0
      vertex -3.81529 -36.3 0
    endloop
  endfacet
  facet normal -0.994522 -0.104527 0
    outer loop
      vertex -35.7024 -7.58878 0
      vertex -36.5 0 12
      vertex -36.5 0 0
    endloop
  endfacet
  facet normal -0.994522 -0.104527 0
    outer loop
      vertex -36.5 0 12
      vertex -35.7024 -7.58878 0
      vertex -35.7024 -7.58878 12
    endloop
  endfacet
  facet normal -0.406743 0.913543 0
    outer loop
      vertex -11.2791 34.7136 0
      vertex -18.25 31.6099 12
      vertex -11.2791 34.7136 12
    endloop
  endfacet
  facet normal -0.406743 0.913543 0
    outer loop
      vertex -18.25 31.6099 12
      vertex -11.2791 34.7136 0
      vertex -18.25 31.6099 0
    endloop
  endfacet
  facet normal -0.866026 -0.5 0
    outer loop
      vertex -29.5291 -21.4542 0
      vertex -33.3444 -14.8459 12
      vertex -33.3444 -14.8459 0
    endloop
  endfacet
  facet normal -0.866026 -0.5 0
    outer loop
      vertex -33.3444 -14.8459 12
      vertex -29.5291 -21.4542 0
      vertex -29.5291 -21.4542 12
    endloop
  endfacet
  facet normal 0.951056 -0.309019 0
    outer loop
      vertex 33.3444 -14.8459 12
      vertex 35.7024 -7.58878 0
      vertex 35.7024 -7.58878 12
    endloop
  endfacet
  facet normal 0.951056 -0.309019 0
    outer loop
      vertex 35.7024 -7.58878 0
      vertex 33.3444 -14.8459 12
      vertex 33.3444 -14.8459 0
    endloop
  endfacet
  facet normal 0.207901 0.97815 -0
    outer loop
      vertex 11.2791 34.7136 0
      vertex 3.81529 36.3 12
      vertex 11.2791 34.7136 12
    endloop
  endfacet
  facet normal 0.207901 0.97815 0
    outer loop
      vertex 3.81529 36.3 12
      vertex 11.2791 34.7136 0
      vertex 3.81529 36.3 0
    endloop
  endfacet
  facet normal 0.58778 0.809021 -0
    outer loop
      vertex 24.4233 27.1248 0
      vertex 18.25 31.6099 12
      vertex 24.4233 27.1248 12
    endloop
  endfacet
  facet normal 0.58778 0.809021 0
    outer loop
      vertex 18.25 31.6099 12
      vertex 24.4233 27.1248 0
      vertex 18.25 31.6099 0
    endloop
  endfacet
  facet normal -0.207901 0.97815 0
    outer loop
      vertex -3.81529 36.3 0
      vertex -11.2791 34.7136 12
      vertex -3.81529 36.3 12
    endloop
  endfacet
  facet normal -0.207901 0.97815 0
    outer loop
      vertex -11.2791 34.7136 12
      vertex -3.81529 36.3 0
      vertex -11.2791 34.7136 0
    endloop
  endfacet
  facet normal 0.406743 -0.913543 0
    outer loop
      vertex 11.2791 -34.7136 0
      vertex 18.25 -31.6099 12
      vertex 11.2791 -34.7136 12
    endloop
  endfacet
  facet normal 0.406743 -0.913543 0
    outer loop
      vertex 18.25 -31.6099 12
      vertex 11.2791 -34.7136 0
      vertex 18.25 -31.6099 0
    endloop
  endfacet
  facet normal 0 -1 0
    outer loop
      vertex -3.81529 -36.3 0
      vertex 3.81529 -36.3 12
      vertex -3.81529 -36.3 12
    endloop
  endfacet
  facet normal 0 -1 -0
    outer loop
      vertex 3.81529 -36.3 12
      vertex -3.81529 -36.3 0
      vertex 3.81529 -36.3 0
    endloop
  endfacet
  facet normal -0.951056 0.309019 0
    outer loop
      vertex -35.7024 7.58878 0
      vertex -33.3444 14.8459 12
      vertex -33.3444 14.8459 0
    endloop
  endfacet
  facet normal -0.951056 0.309019 0
    outer loop
      vertex -33.3444 14.8459 12
      vertex -35.7024 7.58878 0
      vertex -35.7024 7.58878 12
    endloop
  endfacet
  facet normal -0.40673 -0.913548 0
    outer loop
      vertex 9.42502 29.0072 0
      vertex 15.25 26.4138 3
      vertex 9.42502 29.0072 3
    endloop
  endfacet
  facet normal -0.40673 -0.913548 -0
    outer loop
      vertex 15.25 26.4138 3
      vertex 9.42502 29.0072 0
      vertex 15.25 26.4138 0
    endloop
  endfacet
  facet normal -0.994522 0.104529 0
    outer loop
      vertex 29.8335 -6.34131 0
      vertex 30.5 0 9
      vertex 30.5 0 0
    endloop
  endfacet
  facet normal -0.994522 0.104529 0
    outer loop
      vertex 30.5 0 9
      vertex 29.8335 -6.34131 0
      vertex 29.8335 -6.34131 9
    endloop
  endfacet
  facet normal 0.951053 0.309027 0
    outer loop
      vertex -29.5038 -7.35612 9
      vertex -27.8631 -12.4055 9
      vertex -29.5038 -7.35612 3
    endloop
  endfacet
  facet normal 0.951065 0.30899 0
    outer loop
      vertex -29.5038 -7.35612 3
      vertex -29.8335 -6.34131 0
      vertex -29.8335 -6.34131 3
    endloop
  endfacet
  facet normal 0.951053 0.309027 -0
    outer loop
      vertex -27.8631 -12.4055 0
      vertex -29.5038 -7.35612 3
      vertex -27.8631 -12.4055 9
    endloop
  endfacet
  facet normal 0.951055 0.309021 1.14059e-05
    outer loop
      vertex -29.5038 -7.35612 3
      vertex -27.8631 -12.4055 0
      vertex -29.8335 -6.34131 0
    endloop
  endfacet
  facet normal 0.951059 -0.309009 0
    outer loop
      vertex -29.8335 6.34131 3
      vertex -28.0283 11.8973 0
      vertex -28.0283 11.8973 3
    endloop
  endfacet
  facet normal 0.951059 -0.309009 0
    outer loop
      vertex -28.0283 11.8973 0
      vertex -29.8335 6.34131 3
      vertex -29.8335 6.34131 0
    endloop
  endfacet
  facet normal -0.587788 -0.809015 0
    outer loop
      vertex 15.25 26.4138 0
      vertex 20.4085 22.6659 3
      vertex 15.25 26.4138 3
    endloop
  endfacet
  facet normal -0.587788 -0.809015 -0
    outer loop
      vertex 20.4085 22.6659 3
      vertex 15.25 26.4138 0
      vertex 20.4085 22.6659 0
    endloop
  endfacet
  facet normal 0.743143 0.669133 0
    outer loop
      vertex -20.4085 -22.6659 9
      vertex -24.675 -17.9275 0
      vertex -24.675 -17.9275 9
    endloop
  endfacet
  facet normal 0.743143 0.669133 0
    outer loop
      vertex -24.675 -17.9275 0
      vertex -20.4085 -22.6659 9
      vertex -20.4085 -22.6659 0
    endloop
  endfacet
  facet normal 0.994522 0.104529 0
    outer loop
      vertex -29.8335 -6.34131 3
      vertex -30.5 0 0
      vertex -30.5 0 3
    endloop
  endfacet
  facet normal 0.994522 0.104529 0
    outer loop
      vertex -30.5 0 0
      vertex -29.8335 -6.34131 3
      vertex -29.8335 -6.34131 0
    endloop
  endfacet
  facet normal -0.743149 0.669126 0
    outer loop
      vertex 24.675 -17.9275 0
      vertex 21.1225 -21.873 3
      vertex 24.675 -17.9275 9
    endloop
  endfacet
  facet normal -0.743143 0.669133 1.61931e-05
    outer loop
      vertex 20.4085 -22.6659 0
      vertex 21.1225 -21.873 3
      vertex 24.675 -17.9275 0
    endloop
  endfacet
  facet normal -0.743112 0.669167 0
    outer loop
      vertex 21.1225 -21.873 3
      vertex 20.4085 -22.6659 0
      vertex 20.4085 -22.6659 3
    endloop
  endfacet
  facet normal -0.743149 0.669126 0
    outer loop
      vertex 24.675 -17.9275 9
      vertex 21.1225 -21.873 3
      vertex 21.1225 -21.873 9
    endloop
  endfacet
  facet normal 0.866027 0.499997 0
    outer loop
      vertex -24.675 -17.9275 9
      vertex -27.8631 -12.4055 0
      vertex -27.8631 -12.4055 9
    endloop
  endfacet
  facet normal 0.866027 0.499997 0
    outer loop
      vertex -27.8631 -12.4055 0
      vertex -24.675 -17.9275 9
      vertex -24.675 -17.9275 0
    endloop
  endfacet
  facet normal -0.951055 0.309021 0
    outer loop
      vertex 27.8631 -12.4055 0
      vertex 29.8335 -6.34131 9
      vertex 29.8335 -6.34131 0
    endloop
  endfacet
  facet normal -0.951055 0.309021 0
    outer loop
      vertex 29.8335 -6.34131 9
      vertex 27.8631 -12.4055 0
      vertex 27.8631 -12.4055 9
    endloop
  endfacet
  facet normal 0 -1 0
    outer loop
      vertex -3.18812 30.3329 0
      vertex 3.18812 30.3329 9
      vertex -3.18812 30.3329 9
    endloop
  endfacet
  facet normal 0 -1 -0
    outer loop
      vertex 3.18812 30.3329 9
      vertex -3.18812 30.3329 0
      vertex 3.18812 30.3329 0
    endloop
  endfacet
  facet normal -0.866027 0.499997 0
    outer loop
      vertex 24.675 -17.9275 0
      vertex 27.8631 -12.4055 9
      vertex 27.8631 -12.4055 0
    endloop
  endfacet
  facet normal -0.866027 0.499997 0
    outer loop
      vertex 27.8631 -12.4055 9
      vertex 24.675 -17.9275 0
      vertex 24.675 -17.9275 9
    endloop
  endfacet
  facet normal 0.40673 -0.913548 0
    outer loop
      vertex -15.25 26.4138 0
      vertex -9.42502 29.0072 9
      vertex -15.25 26.4138 9
    endloop
  endfacet
  facet normal 0.40673 -0.913548 0
    outer loop
      vertex -9.42502 29.0072 9
      vertex -15.25 26.4138 0
      vertex -9.42502 29.0072 0
    endloop
  endfacet
  facet normal 0.994522 -0.104529 0
    outer loop
      vertex -30.5 0 3
      vertex -29.8335 6.34131 0
      vertex -29.8335 6.34131 3
    endloop
  endfacet
  facet normal 0.994522 -0.104529 0
    outer loop
      vertex -29.8335 6.34131 0
      vertex -30.5 0 3
      vertex -30.5 0 0
    endloop
  endfacet
  facet normal -0.207904 -0.978149 0
    outer loop
      vertex 3.18812 30.3329 9
      vertex 8.3813 29.2291 3
      vertex 8.3813 29.2291 9
    endloop
  endfacet
  facet normal -0.207904 -0.978149 0
    outer loop
      vertex 3.18812 30.3329 0
      vertex 8.3813 29.2291 3
      vertex 3.18812 30.3329 9
    endloop
  endfacet
  facet normal -0.207913 -0.978147 1.61279e-05
    outer loop
      vertex 9.42502 29.0072 0
      vertex 8.3813 29.2291 3
      vertex 3.18812 30.3329 0
    endloop
  endfacet
  facet normal -0.207957 -0.978138 0
    outer loop
      vertex 8.3813 29.2291 3
      vertex 9.42502 29.0072 0
      vertex 9.42502 29.0072 3
    endloop
  endfacet
  facet normal -0.743146 -0.669129 0
    outer loop
      vertex 24.3175 18.3245 0
      vertex 20.4085 22.6659 3
      vertex 20.4085 22.6659 0
    endloop
  endfacet
  facet normal -0.743146 -0.669129 0
    outer loop
      vertex 20.4085 22.6659 3
      vertex 24.3175 18.3245 0
      vertex 24.3175 18.3245 3
    endloop
  endfacet
  facet normal 0.207913 -0.978147 0
    outer loop
      vertex -9.42502 29.0072 0
      vertex -3.18812 30.3329 9
      vertex -9.42502 29.0072 9
    endloop
  endfacet
  facet normal 0.207913 -0.978147 0
    outer loop
      vertex -3.18812 30.3329 9
      vertex -9.42502 29.0072 0
      vertex -3.18812 30.3329 0
    endloop
  endfacet
  facet normal -0.587788 0.809015 0
    outer loop
      vertex 20.4085 -22.6659 0
      vertex 15.25 -26.4138 3
      vertex 20.4085 -22.6659 3
    endloop
  endfacet
  facet normal -0.587788 0.809015 0
    outer loop
      vertex 15.25 -26.4138 3
      vertex 20.4085 -22.6659 0
      vertex 15.25 -26.4138 0
    endloop
  endfacet
  facet normal -0.207911 0.978148 0
    outer loop
      vertex 9.42502 -29.0072 0
      vertex 3.71077 -30.2218 3
      vertex 9.42502 -29.0072 3
    endloop
  endfacet
  facet normal -0.207911 0.978148 0
    outer loop
      vertex 3.71077 -30.2218 3
      vertex 9.42502 -29.0072 0
      vertex 3.71077 -30.2218 0
    endloop
  endfacet
  facet normal -0.40673 0.913548 0
    outer loop
      vertex 15.25 -26.4138 0
      vertex 9.42502 -29.0072 3
      vertex 15.25 -26.4138 3
    endloop
  endfacet
  facet normal -0.40673 0.913548 0
    outer loop
      vertex 9.42502 -29.0072 3
      vertex 15.25 -26.4138 0
      vertex 9.42502 -29.0072 0
    endloop
  endfacet
  facet normal 0.587788 0.809015 -0
    outer loop
      vertex -15.25 -26.4138 0
      vertex -20.4085 -22.6659 9
      vertex -15.25 -26.4138 9
    endloop
  endfacet
  facet normal 0.587788 0.809015 0
    outer loop
      vertex -20.4085 -22.6659 9
      vertex -15.25 -26.4138 0
      vertex -20.4085 -22.6659 0
    endloop
  endfacet
  facet normal 0.961262 -0.275636 0
    outer loop
      vertex 8.3813 29.2291 9
      vertex 9.20569 32.1041 3
      vertex 9.20569 32.1041 9
    endloop
  endfacet
  facet normal 0.961262 -0.275636 0
    outer loop
      vertex 9.20569 32.1041 3
      vertex 8.3813 29.2291 9
      vertex 8.3813 29.2291 3
    endloop
  endfacet
  facet normal -0.406733 -0.913547 0
    outer loop
      vertex 10.3521 31.8604 3
      vertex 16.75 29.0119 9
      vertex 10.3521 31.8604 9
    endloop
  endfacet
  facet normal -0.406733 -0.913547 -0
    outer loop
      vertex 16.75 29.0119 9
      vertex 10.3521 31.8604 3
      vertex 16.75 29.0119 3
    endloop
  endfacet
  facet normal -0.587784 -0.809018 0
    outer loop
      vertex 16.75 29.0119 3
      vertex 22.4159 24.8954 9
      vertex 16.75 29.0119 9
    endloop
  endfacet
  facet normal -0.587784 -0.809018 -0
    outer loop
      vertex 22.4159 24.8954 9
      vertex 16.75 29.0119 3
      vertex 22.4159 24.8954 3
    endloop
  endfacet
  facet normal -0.20793 -0.978144 0
    outer loop
      vertex 9.20569 32.1041 3
      vertex 10.3521 31.8604 9
      vertex 9.20569 32.1041 9
    endloop
  endfacet
  facet normal -0.20793 -0.978144 -0
    outer loop
      vertex 10.3521 31.8604 9
      vertex 9.20569 32.1041 3
      vertex 10.3521 31.8604 3
    endloop
  endfacet
  facet normal -0.241922 0.970296 0
    outer loop
      vertex -29.5038 -7.35612 3
      vertex -32.4058 -8.07967 9
      vertex -29.5038 -7.35612 9
    endloop
  endfacet
  facet normal -0.241922 0.970296 0
    outer loop
      vertex -32.4058 -8.07967 9
      vertex -29.5038 -7.35612 3
      vertex -32.4058 -8.07967 3
    endloop
  endfacet
  facet normal 0.994521 0.104535 0
    outer loop
      vertex -32.7679 -6.96504 9
      vertex -33.5 3.34862e-07 3
      vertex -33.5 3.34862e-07 9
    endloop
  endfacet
  facet normal 0.994521 0.104535 0
    outer loop
      vertex -33.5 3.34862e-07 3
      vertex -32.7679 -6.96504 9
      vertex -32.7679 -6.96504 3
    endloop
  endfacet
  facet normal 0.994521 -0.104535 0
    outer loop
      vertex -33.5 3.34862e-07 9
      vertex -32.7679 6.96504 3
      vertex -32.7679 6.96504 9
    endloop
  endfacet
  facet normal 0.994521 -0.104535 0
    outer loop
      vertex -32.7679 6.96504 3
      vertex -33.5 3.34862e-07 9
      vertex -33.5 3.34862e-07 3
    endloop
  endfacet
  facet normal 0.951073 0.308967 0
    outer loop
      vertex -32.4058 -8.07967 9
      vertex -32.7679 -6.96504 3
      vertex -32.7679 -6.96504 9
    endloop
  endfacet
  facet normal 0.951073 0.308967 0
    outer loop
      vertex -32.7679 -6.96504 3
      vertex -32.4058 -8.07967 9
      vertex -32.4058 -8.07967 3
    endloop
  endfacet
  facet normal -0.719337 -0.694661 0
    outer loop
      vertex 23.2001 -24.0244 3
      vertex 21.1225 -21.873 9
      vertex 21.1225 -21.873 3
    endloop
  endfacet
  facet normal -0.719337 -0.694661 0
    outer loop
      vertex 21.1225 -21.873 9
      vertex 23.2001 -24.0244 3
      vertex 23.2001 -24.0244 9
    endloop
  endfacet
  facet normal -0.587784 0.809018 0
    outer loop
      vertex 22.4159 -24.8954 3
      vertex 16.75 -29.0119 9
      vertex 22.4159 -24.8954 9
    endloop
  endfacet
  facet normal -0.587784 0.809018 0
    outer loop
      vertex 16.75 -29.0119 9
      vertex 22.4159 -24.8954 3
      vertex 16.75 -29.0119 3
    endloop
  endfacet
  facet normal -0.406733 0.913547 0
    outer loop
      vertex 16.75 -29.0119 3
      vertex 10.3521 -31.8604 9
      vertex 16.75 -29.0119 9
    endloop
  endfacet
  facet normal -0.406733 0.913547 0
    outer loop
      vertex 10.3521 -31.8604 9
      vertex 16.75 -29.0119 3
      vertex 10.3521 -31.8604 3
    endloop
  endfacet
  facet normal -0.743167 0.669106 0
    outer loop
      vertex 22.4159 -24.8954 3
      vertex 23.2001 -24.0244 9
      vertex 23.2001 -24.0244 3
    endloop
  endfacet
  facet normal -0.743167 0.669106 0
    outer loop
      vertex 23.2001 -24.0244 9
      vertex 22.4159 -24.8954 3
      vertex 22.4159 -24.8954 9
    endloop
  endfacet
  facet normal 0 0 -1
    outer loop
      vertex 22.4159 -24.8954 9
      vertex 21.1225 -21.873 9
      vertex 23.2001 -24.0244 9
    endloop
  endfacet
  facet normal 0 0 -1
    outer loop
      vertex 21.1225 -21.873 9
      vertex 17.3974 -19.3218 9
      vertex 21.0344 -15.2824 9
    endloop
  endfacet
  facet normal 0 0 -1
    outer loop
      vertex 16.75 -29.0119 9
      vertex 21.1225 -21.873 9
      vertex 22.4159 -24.8954 9
    endloop
  endfacet
  facet normal 0 0 -1
    outer loop
      vertex 13 -22.5167 9
      vertex 21.1225 -21.873 9
      vertex 16.75 -29.0119 9
    endloop
  endfacet
  facet normal -0 0 -1
    outer loop
      vertex 21.1225 -21.873 9
      vertex 13 -22.5167 9
      vertex 17.3974 -19.3218 9
    endloop
  endfacet
  facet normal 0 0 -1
    outer loop
      vertex 10.3521 -31.8604 9
      vertex 13 -22.5167 9
      vertex 16.75 -29.0119 9
    endloop
  endfacet
  facet normal 0 0 -1
    outer loop
      vertex 10.3521 -31.8604 9
      vertex 8.03444 -24.7275 9
      vertex 13 -22.5167 9
    endloop
  endfacet
  facet normal 0 0 -1
    outer loop
      vertex 3.5017 -33.3165 9
      vertex 8.03444 -24.7275 9
      vertex 10.3521 -31.8604 9
    endloop
  endfacet
  facet normal 0 0 -1
    outer loop
      vertex 3.5017 -33.3165 9
      vertex 2.71774 -25.8576 9
      vertex 8.03444 -24.7275 9
    endloop
  endfacet
  facet normal 0 0 -1
    outer loop
      vertex 3.5017 -33.3165 9
      vertex -2.71774 -25.8576 9
      vertex 2.71774 -25.8576 9
    endloop
  endfacet
  facet normal 0 0 -1
    outer loop
      vertex -3.5017 -33.3165 9
      vertex -2.71774 -25.8576 9
      vertex 3.5017 -33.3165 9
    endloop
  endfacet
  facet normal 0 0 -1
    outer loop
      vertex -3.5017 -33.3165 9
      vertex -8.03444 -24.7275 9
      vertex -2.71774 -25.8576 9
    endloop
  endfacet
  facet normal 0 0 -1
    outer loop
      vertex -10.3521 -31.8604 9
      vertex -8.03444 -24.7275 9
      vertex -3.5017 -33.3165 9
    endloop
  endfacet
  facet normal 0 0 -1
    outer loop
      vertex -15.25 -26.4138 9
      vertex -8.03444 -24.7275 9
      vertex -10.3521 -31.8604 9
    endloop
  endfacet
  facet normal -0 0 -1
    outer loop
      vertex -8.03444 -24.7275 9
      vertex -15.25 -26.4138 9
      vertex -13 -22.5167 9
    endloop
  endfacet
  facet normal 0 -0 -1
    outer loop
      vertex -15.25 -26.4138 9
      vertex -10.3521 -31.8604 9
      vertex -16.75 -29.0119 9
    endloop
  endfacet
  facet normal 0 0 -1
    outer loop
      vertex 30.5 0 9
      vertex 32.7679 6.96504 9
      vertex 33.5 0 9
    endloop
  endfacet
  facet normal 0 0 -1
    outer loop
      vertex 32.7679 6.96504 9
      vertex 30.5 0 9
      vertex 25.4318 5.4057 9
    endloop
  endfacet
  facet normal 0 0 -1
    outer loop
      vertex 26 0 9
      vertex 30.5 0 9
      vertex 29.8335 -6.34131 9
    endloop
  endfacet
  facet normal 0 0 -1
    outer loop
      vertex 25.4318 -5.4057 9
      vertex 29.8335 -6.34131 9
      vertex 27.8631 -12.4055 9
    endloop
  endfacet
  facet normal 0 0 -1
    outer loop
      vertex 25.4318 5.4057 9
      vertex 30.5 0 9
      vertex 26 0 9
    endloop
  endfacet
  facet normal -0 0 -1
    outer loop
      vertex 32.7679 6.96504 9
      vertex 25.4318 5.4057 9
      vertex 30.6038 13.6257 9
    endloop
  endfacet
  facet normal 0 0 -1
    outer loop
      vertex 29.8335 -6.34131 9
      vertex 25.4318 -5.4057 9
      vertex 26 0 9
    endloop
  endfacet
  facet normal 0 0 -1
    outer loop
      vertex 23.7522 -10.5752 9
      vertex 27.8631 -12.4055 9
      vertex 24.675 -17.9275 9
    endloop
  endfacet
  facet normal 0 0 -1
    outer loop
      vertex 27.8631 -12.4055 9
      vertex 23.7522 -10.5752 9
      vertex 25.4318 -5.4057 9
    endloop
  endfacet
  facet normal 0 0 -1
    outer loop
      vertex 21.0344 -15.2824 9
      vertex 24.675 -17.9275 9
      vertex 21.1225 -21.873 9
    endloop
  endfacet
  facet normal 0 0 -1
    outer loop
      vertex 24.675 -17.9275 9
      vertex 21.0344 -15.2824 9
      vertex 23.7522 -10.5752 9
    endloop
  endfacet
  facet normal 0 0 -1
    outer loop
      vertex 23.7522 10.5752 9
      vertex 30.6038 13.6257 9
      vertex 25.4318 5.4057 9
    endloop
  endfacet
  facet normal -0 0 -1
    outer loop
      vertex 30.6038 13.6257 9
      vertex 23.7522 10.5752 9
      vertex 27.1021 19.6908 9
    endloop
  endfacet
  facet normal 0 0 -1
    outer loop
      vertex 21.0344 15.2824 9
      vertex 27.1021 19.6908 9
      vertex 23.7522 10.5752 9
    endloop
  endfacet
  facet normal -0 0 -1
    outer loop
      vertex 27.1021 19.6908 9
      vertex 21.0344 15.2824 9
      vertex 22.4159 24.8954 9
    endloop
  endfacet
  facet normal 0 0 -1
    outer loop
      vertex 17.3974 19.3218 9
      vertex 22.4159 24.8954 9
      vertex 21.0344 15.2824 9
    endloop
  endfacet
  facet normal 0 0 -1
    outer loop
      vertex 17.3974 19.3218 9
      vertex 16.75 29.0119 9
      vertex 22.4159 24.8954 9
    endloop
  endfacet
  facet normal 0 0 -1
    outer loop
      vertex 13 22.5167 9
      vertex 16.75 29.0119 9
      vertex 17.3974 19.3218 9
    endloop
  endfacet
  facet normal 0 0 -1
    outer loop
      vertex 8.3813 29.2291 9
      vertex 16.75 29.0119 9
      vertex 13 22.5167 9
    endloop
  endfacet
  facet normal 0 0 -1
    outer loop
      vertex 16.75 29.0119 9
      vertex 8.3813 29.2291 9
      vertex 10.3521 31.8604 9
    endloop
  endfacet
  facet normal -0 0 -1
    outer loop
      vertex 10.3521 31.8604 9
      vertex 8.3813 29.2291 9
      vertex 9.20569 32.1041 9
    endloop
  endfacet
  facet normal 0 0 -1
    outer loop
      vertex 8.03444 24.7275 9
      vertex 8.3813 29.2291 9
      vertex 13 22.5167 9
    endloop
  endfacet
  facet normal 0 0 -1
    outer loop
      vertex 2.71774 25.8576 9
      vertex 8.3813 29.2291 9
      vertex 8.03444 24.7275 9
    endloop
  endfacet
  facet normal -0 0 -1
    outer loop
      vertex 8.3813 29.2291 9
      vertex 2.71774 25.8576 9
      vertex 3.18812 30.3329 9
    endloop
  endfacet
  facet normal 0 0 -1
    outer loop
      vertex -2.71774 25.8576 9
      vertex 3.18812 30.3329 9
      vertex 2.71774 25.8576 9
    endloop
  endfacet
  facet normal 0 0 -1
    outer loop
      vertex -2.71774 25.8576 9
      vertex -3.18812 30.3329 9
      vertex 3.18812 30.3329 9
    endloop
  endfacet
  facet normal 0 0 -1
    outer loop
      vertex -8.03444 24.7275 9
      vertex -3.18812 30.3329 9
      vertex -2.71774 25.8576 9
    endloop
  endfacet
  facet normal 0 0 -1
    outer loop
      vertex -8.03444 24.7275 9
      vertex -9.42502 29.0072 9
      vertex -3.18812 30.3329 9
    endloop
  endfacet
  facet normal 0 0 -1
    outer loop
      vertex -13 22.5167 9
      vertex -9.42502 29.0072 9
      vertex -8.03444 24.7275 9
    endloop
  endfacet
  facet normal 0 0 -1
    outer loop
      vertex -13 22.5167 9
      vertex -15.25 26.4138 9
      vertex -9.42502 29.0072 9
    endloop
  endfacet
  facet normal 0 0 -1
    outer loop
      vertex -17.3974 19.3218 9
      vertex -15.25 26.4138 9
      vertex -13 22.5167 9
    endloop
  endfacet
  facet normal 0 0 -1
    outer loop
      vertex -22.4159 24.8954 9
      vertex -15.25 26.4138 9
      vertex -17.3974 19.3218 9
    endloop
  endfacet
  facet normal 0 0 -1
    outer loop
      vertex -22.4159 24.8954 9
      vertex -17.3974 19.3218 9
      vertex -21.0344 15.2824 9
    endloop
  endfacet
  facet normal -0 0 -1
    outer loop
      vertex -15.25 26.4138 9
      vertex -22.4159 24.8954 9
      vertex -16.75 29.0119 9
    endloop
  endfacet
  facet normal 0 0 -1
    outer loop
      vertex -27.1021 19.6908 9
      vertex -21.0344 15.2824 9
      vertex -23.7522 10.5752 9
    endloop
  endfacet
  facet normal 0 0 -1
    outer loop
      vertex -30.6038 13.6257 9
      vertex -23.7522 10.5752 9
      vertex -25.4318 5.4057 9
    endloop
  endfacet
  facet normal 0 0 -1
    outer loop
      vertex -21.0344 15.2824 9
      vertex -27.1021 19.6908 9
      vertex -22.4159 24.8954 9
    endloop
  endfacet
  facet normal 0 0 -1
    outer loop
      vertex -32.7679 6.96504 9
      vertex -25.4318 5.4057 9
      vertex -26 0 9
    endloop
  endfacet
  facet normal 0 0 -1
    outer loop
      vertex -15.25 -26.4138 9
      vertex -17.3974 -19.3218 9
      vertex -13 -22.5167 9
    endloop
  endfacet
  facet normal 0 0 -1
    outer loop
      vertex -20.4085 -22.6659 9
      vertex -17.3974 -19.3218 9
      vertex -15.25 -26.4138 9
    endloop
  endfacet
  facet normal 0 0 -1
    outer loop
      vertex -20.4085 -22.6659 9
      vertex -21.0344 -15.2824 9
      vertex -17.3974 -19.3218 9
    endloop
  endfacet
  facet normal 0 0 -1
    outer loop
      vertex -24.675 -17.9275 9
      vertex -21.0344 -15.2824 9
      vertex -20.4085 -22.6659 9
    endloop
  endfacet
  facet normal -0 0 -1
    outer loop
      vertex -21.0344 -15.2824 9
      vertex -24.675 -17.9275 9
      vertex -23.7522 -10.5752 9
    endloop
  endfacet
  facet normal 0 0 -1
    outer loop
      vertex -27.8631 -12.4055 9
      vertex -23.7522 -10.5752 9
      vertex -24.675 -17.9275 9
    endloop
  endfacet
  facet normal 0 0 -1
    outer loop
      vertex -29.5038 -7.35612 9
      vertex -23.7522 -10.5752 9
      vertex -27.8631 -12.4055 9
    endloop
  endfacet
  facet normal 0 0 -1
    outer loop
      vertex -23.7522 -10.5752 9
      vertex -29.5038 -7.35612 9
      vertex -25.4318 -5.4057 9
    endloop
  endfacet
  facet normal -0 0 -1
    outer loop
      vertex -25.4318 -5.4057 9
      vertex -29.5038 -7.35612 9
      vertex -26 0 9
    endloop
  endfacet
  facet normal 0 0 -1
    outer loop
      vertex -33.5 3.34862e-07 9
      vertex -26 0 9
      vertex -29.5038 -7.35612 9
    endloop
  endfacet
  facet normal 0 0 -1
    outer loop
      vertex -23.7522 10.5752 9
      vertex -30.6038 13.6257 9
      vertex -27.1021 19.6908 9
    endloop
  endfacet
  facet normal 0 0 -1
    outer loop
      vertex -32.7679 -6.96504 9
      vertex -29.5038 -7.35612 9
      vertex -32.4058 -8.07967 9
    endloop
  endfacet
  facet normal 0 0 -1
    outer loop
      vertex -29.5038 -7.35612 9
      vertex -32.7679 -6.96504 9
      vertex -33.5 3.34862e-07 9
    endloop
  endfacet
  facet normal 0 0 -1
    outer loop
      vertex -25.4318 5.4057 9
      vertex -32.7679 6.96504 9
      vertex -30.6038 13.6257 9
    endloop
  endfacet
  facet normal 0 0 -1
    outer loop
      vertex -26 0 9
      vertex -33.5 3.34862e-07 9
      vertex -32.7679 6.96504 9
    endloop
  endfacet
  facet normal 0 0 1
    outer loop
      vertex 26 0 12
      vertex 36.5 0 12
      vertex 35.7024 7.58878 12
    endloop
  endfacet
  facet normal 0 0 1
    outer loop
      vertex 25.4318 5.4057 12
      vertex 35.7024 7.58878 12
      vertex 33.3444 14.8459 12
    endloop
  endfacet
  facet normal 0 0 1
    outer loop
      vertex 36.5 0 12
      vertex 26 0 12
      vertex 35.7024 -7.58878 12
    endloop
  endfacet
  facet normal 0 0 1
    outer loop
      vertex 23.7522 10.5752 12
      vertex 33.3444 14.8459 12
      vertex 29.5291 21.4542 12
    endloop
  endfacet
  facet normal -0 0 1
    outer loop
      vertex 25.4318 -5.4057 12
      vertex 35.7024 -7.58878 12
      vertex 26 0 12
    endloop
  endfacet
  facet normal 0 0 1
    outer loop
      vertex 35.7024 -7.58878 12
      vertex 25.4318 -5.4057 12
      vertex 33.3444 -14.8459 12
    endloop
  endfacet
  facet normal 0 0 1
    outer loop
      vertex 35.7024 7.58878 12
      vertex 25.4318 5.4057 12
      vertex 26 0 12
    endloop
  endfacet
  facet normal 0 0 1
    outer loop
      vertex 21.0344 15.2824 12
      vertex 29.5291 21.4542 12
      vertex 24.4233 27.1248 12
    endloop
  endfacet
  facet normal 0 0 1
    outer loop
      vertex 33.3444 14.8459 12
      vertex 23.7522 10.5752 12
      vertex 25.4318 5.4057 12
    endloop
  endfacet
  facet normal 0 0 1
    outer loop
      vertex 29.5291 21.4542 12
      vertex 21.0344 15.2824 12
      vertex 23.7522 10.5752 12
    endloop
  endfacet
  facet normal 0 0 1
    outer loop
      vertex 17.3974 19.3218 12
      vertex 24.4233 27.1248 12
      vertex 18.25 31.6099 12
    endloop
  endfacet
  facet normal 0 0 1
    outer loop
      vertex 24.4233 27.1248 12
      vertex 17.3974 19.3218 12
      vertex 21.0344 15.2824 12
    endloop
  endfacet
  facet normal 0 0 1
    outer loop
      vertex 18.25 31.6099 12
      vertex 13 22.5167 12
      vertex 17.3974 19.3218 12
    endloop
  endfacet
  facet normal 0 0 1
    outer loop
      vertex 11.2791 34.7136 12
      vertex 13 22.5167 12
      vertex 18.25 31.6099 12
    endloop
  endfacet
  facet normal 0 0 1
    outer loop
      vertex 11.2791 34.7136 12
      vertex 8.03444 24.7275 12
      vertex 13 22.5167 12
    endloop
  endfacet
  facet normal 0 0 1
    outer loop
      vertex 3.81529 36.3 12
      vertex 8.03444 24.7275 12
      vertex 11.2791 34.7136 12
    endloop
  endfacet
  facet normal 0 0 1
    outer loop
      vertex 3.81529 36.3 12
      vertex 2.71774 25.8576 12
      vertex 8.03444 24.7275 12
    endloop
  endfacet
  facet normal 0 0 1
    outer loop
      vertex 3.81529 36.3 12
      vertex -2.71774 25.8576 12
      vertex 2.71774 25.8576 12
    endloop
  endfacet
  facet normal -0 0 1
    outer loop
      vertex -3.81529 36.3 12
      vertex -2.71774 25.8576 12
      vertex 3.81529 36.3 12
    endloop
  endfacet
  facet normal 0 0 1
    outer loop
      vertex -3.81529 36.3 12
      vertex -8.03444 24.7275 12
      vertex -2.71774 25.8576 12
    endloop
  endfacet
  facet normal -0 0 1
    outer loop
      vertex -11.2791 34.7136 12
      vertex -8.03444 24.7275 12
      vertex -3.81529 36.3 12
    endloop
  endfacet
  facet normal 0 0 1
    outer loop
      vertex -11.2791 34.7136 12
      vertex -13 22.5167 12
      vertex -8.03444 24.7275 12
    endloop
  endfacet
  facet normal -0 0 1
    outer loop
      vertex -18.25 31.6099 12
      vertex -13 22.5167 12
      vertex -11.2791 34.7136 12
    endloop
  endfacet
  facet normal 0 0 1
    outer loop
      vertex -13 22.5167 12
      vertex -18.25 31.6099 12
      vertex -17.3974 19.3218 12
    endloop
  endfacet
  facet normal -0 0 1
    outer loop
      vertex -24.4233 27.1248 12
      vertex -17.3974 19.3218 12
      vertex -18.25 31.6099 12
    endloop
  endfacet
  facet normal 0 0 1
    outer loop
      vertex -17.3974 19.3218 12
      vertex -24.4233 27.1248 12
      vertex -21.0344 15.2824 12
    endloop
  endfacet
  facet normal -0 0 1
    outer loop
      vertex -29.5291 21.4542 12
      vertex -21.0344 15.2824 12
      vertex -24.4233 27.1248 12
    endloop
  endfacet
  facet normal 0 0 1
    outer loop
      vertex -21.0344 15.2824 12
      vertex -29.5291 21.4542 12
      vertex -23.7522 10.5752 12
    endloop
  endfacet
  facet normal -0 0 1
    outer loop
      vertex -33.3444 14.8459 12
      vertex -23.7522 10.5752 12
      vertex -29.5291 21.4542 12
    endloop
  endfacet
  facet normal 0 0 1
    outer loop
      vertex -23.7522 10.5752 12
      vertex -33.3444 14.8459 12
      vertex -25.4318 5.4057 12
    endloop
  endfacet
  facet normal -0 0 1
    outer loop
      vertex 23.7522 -10.5752 12
      vertex 33.3444 -14.8459 12
      vertex 25.4318 -5.4057 12
    endloop
  endfacet
  facet normal 0 0 1
    outer loop
      vertex 33.3444 -14.8459 12
      vertex 23.7522 -10.5752 12
      vertex 29.5291 -21.4542 12
    endloop
  endfacet
  facet normal -0 0 1
    outer loop
      vertex 21.0344 -15.2824 12
      vertex 29.5291 -21.4542 12
      vertex 23.7522 -10.5752 12
    endloop
  endfacet
  facet normal 0 0 1
    outer loop
      vertex 29.5291 -21.4542 12
      vertex 21.0344 -15.2824 12
      vertex 24.4233 -27.1248 12
    endloop
  endfacet
  facet normal -0 0 1
    outer loop
      vertex 17.3974 -19.3218 12
      vertex 24.4233 -27.1248 12
      vertex 21.0344 -15.2824 12
    endloop
  endfacet
  facet normal 0 0 1
    outer loop
      vertex 24.4233 -27.1248 12
      vertex 17.3974 -19.3218 12
      vertex 18.25 -31.6099 12
    endloop
  endfacet
  facet normal -0 0 1
    outer loop
      vertex 13 -22.5167 12
      vertex 18.25 -31.6099 12
      vertex 17.3974 -19.3218 12
    endloop
  endfacet
  facet normal 0 0 1
    outer loop
      vertex 13 -22.5167 12
      vertex 11.2791 -34.7136 12
      vertex 18.25 -31.6099 12
    endloop
  endfacet
  facet normal -0 0 1
    outer loop
      vertex 8.03444 -24.7275 12
      vertex 11.2791 -34.7136 12
      vertex 13 -22.5167 12
    endloop
  endfacet
  facet normal 0 0 1
    outer loop
      vertex 8.03444 -24.7275 12
      vertex 3.81529 -36.3 12
      vertex 11.2791 -34.7136 12
    endloop
  endfacet
  facet normal -0 0 1
    outer loop
      vertex 2.71774 -25.8576 12
      vertex 3.81529 -36.3 12
      vertex 8.03444 -24.7275 12
    endloop
  endfacet
  facet normal -0 0 1
    outer loop
      vertex -2.71774 -25.8576 12
      vertex 3.81529 -36.3 12
      vertex 2.71774 -25.8576 12
    endloop
  endfacet
  facet normal 0 0 1
    outer loop
      vertex -2.71774 -25.8576 12
      vertex -3.81529 -36.3 12
      vertex 3.81529 -36.3 12
    endloop
  endfacet
  facet normal 0 0 1
    outer loop
      vertex -8.03444 -24.7275 12
      vertex -3.81529 -36.3 12
      vertex -2.71774 -25.8576 12
    endloop
  endfacet
  facet normal 0 0 1
    outer loop
      vertex -8.03444 -24.7275 12
      vertex -11.2791 -34.7136 12
      vertex -3.81529 -36.3 12
    endloop
  endfacet
  facet normal 0 0 1
    outer loop
      vertex -13 -22.5167 12
      vertex -11.2791 -34.7136 12
      vertex -8.03444 -24.7275 12
    endloop
  endfacet
  facet normal 0 0 1
    outer loop
      vertex -18.25 -31.6099 12
      vertex -13 -22.5167 12
      vertex -17.3974 -19.3218 12
    endloop
  endfacet
  facet normal 0 0 1
    outer loop
      vertex -13 -22.5167 12
      vertex -18.25 -31.6099 12
      vertex -11.2791 -34.7136 12
    endloop
  endfacet
  facet normal 0 0 1
    outer loop
      vertex -24.4233 -27.1248 12
      vertex -17.3974 -19.3218 12
      vertex -21.0344 -15.2824 12
    endloop
  endfacet
  facet normal 0 0 1
    outer loop
      vertex -29.5291 -21.4542 12
      vertex -21.0344 -15.2824 12
      vertex -23.7522 -10.5752 12
    endloop
  endfacet
  facet normal 0 0 1
    outer loop
      vertex -17.3974 -19.3218 12
      vertex -24.4233 -27.1248 12
      vertex -18.25 -31.6099 12
    endloop
  endfacet
  facet normal 0 0 1
    outer loop
      vertex -33.3444 -14.8459 12
      vertex -23.7522 -10.5752 12
      vertex -25.4318 -5.4057 12
    endloop
  endfacet
  facet normal 0 0 1
    outer loop
      vertex -35.7024 -7.58878 12
      vertex -25.4318 -5.4057 12
      vertex -26 0 12
    endloop
  endfacet
  facet normal -0 0 1
    outer loop
      vertex -35.7024 7.58878 12
      vertex -25.4318 5.4057 12
      vertex -33.3444 14.8459 12
    endloop
  endfacet
  facet normal 0 0 1
    outer loop
      vertex -21.0344 -15.2824 12
      vertex -29.5291 -21.4542 12
      vertex -24.4233 -27.1248 12
    endloop
  endfacet
  facet normal 0 0 1
    outer loop
      vertex -25.4318 5.4057 12
      vertex -35.7024 7.58878 12
      vertex -26 0 12
    endloop
  endfacet
  facet normal 0 0 1
    outer loop
      vertex -23.7522 -10.5752 12
      vertex -33.3444 -14.8459 12
      vertex -29.5291 -21.4542 12
    endloop
  endfacet
  facet normal 0 0 1
    outer loop
      vertex -36.5 0 12
      vertex -26 0 12
      vertex -35.7024 7.58878 12
    endloop
  endfacet
  facet normal 0 0 1
    outer loop
      vertex -25.4318 -5.4057 12
      vertex -35.7024 -7.58878 12
      vertex -33.3444 -14.8459 12
    endloop
  endfacet
  facet normal 0 0 1
    outer loop
      vertex -26 0 12
      vertex -36.5 0 12
      vertex -35.7024 -7.58878 12
    endloop
  endfacet
  facet normal -0.95106 -0.309005 0
    outer loop
      vertex 25.4318 5.4057 9
      vertex 23.7522 10.5752 12
      vertex 23.7522 10.5752 9
    endloop
  endfacet
  facet normal -0.95106 -0.309005 0
    outer loop
      vertex 23.7522 10.5752 12
      vertex 25.4318 5.4057 9
      vertex 25.4318 5.4057 12
    endloop
  endfacet
  facet normal -0.994521 -0.104535 0
    outer loop
      vertex 26 0 9
      vertex 25.4318 5.4057 12
      vertex 25.4318 5.4057 9
    endloop
  endfacet
  facet normal -0.994521 -0.104535 0
    outer loop
      vertex 25.4318 5.4057 12
      vertex 26 0 9
      vertex 26 0 12
    endloop
  endfacet
  facet normal -0.866018 -0.500013 0
    outer loop
      vertex 23.7522 10.5752 9
      vertex 21.0344 15.2824 12
      vertex 21.0344 15.2824 9
    endloop
  endfacet
  facet normal -0.866018 -0.500013 0
    outer loop
      vertex 21.0344 15.2824 12
      vertex 23.7522 10.5752 9
      vertex 23.7522 10.5752 12
    endloop
  endfacet
  facet normal -0.587785 0.809017 0
    outer loop
      vertex 17.3974 -19.3218 9
      vertex 13 -22.5167 12
      vertex 17.3974 -19.3218 12
    endloop
  endfacet
  facet normal -0.587785 0.809017 0
    outer loop
      vertex 13 -22.5167 12
      vertex 17.3974 -19.3218 9
      vertex 13 -22.5167 9
    endloop
  endfacet
  facet normal 0.406735 -0.913546 0
    outer loop
      vertex -13 22.5167 9
      vertex -8.03444 24.7275 12
      vertex -13 22.5167 12
    endloop
  endfacet
  facet normal 0.406735 -0.913546 0
    outer loop
      vertex -8.03444 24.7275 12
      vertex -13 22.5167 9
      vertex -8.03444 24.7275 9
    endloop
  endfacet
  facet normal -0.406735 -0.913546 0
    outer loop
      vertex 8.03444 24.7275 9
      vertex 13 22.5167 12
      vertex 8.03444 24.7275 12
    endloop
  endfacet
  facet normal -0.406735 -0.913546 -0
    outer loop
      vertex 13 22.5167 12
      vertex 8.03444 24.7275 9
      vertex 13 22.5167 9
    endloop
  endfacet
  facet normal -0.994521 0.104535 0
    outer loop
      vertex 25.4318 -5.4057 9
      vertex 26 0 12
      vertex 26 0 9
    endloop
  endfacet
  facet normal -0.994521 0.104535 0
    outer loop
      vertex 26 0 12
      vertex 25.4318 -5.4057 9
      vertex 25.4318 -5.4057 12
    endloop
  endfacet
  facet normal 0.587785 -0.809017 0
    outer loop
      vertex -17.3974 19.3218 9
      vertex -13 22.5167 12
      vertex -17.3974 19.3218 12
    endloop
  endfacet
  facet normal 0.587785 -0.809017 0
    outer loop
      vertex -13 22.5167 12
      vertex -17.3974 19.3218 9
      vertex -13 22.5167 9
    endloop
  endfacet
  facet normal -0.743153 -0.669121 0
    outer loop
      vertex 21.0344 15.2824 9
      vertex 17.3974 19.3218 12
      vertex 17.3974 19.3218 9
    endloop
  endfacet
  facet normal -0.743153 -0.669121 0
    outer loop
      vertex 17.3974 19.3218 12
      vertex 21.0344 15.2824 9
      vertex 21.0344 15.2824 12
    endloop
  endfacet
  facet normal 0.587785 0.809017 -0
    outer loop
      vertex -13 -22.5167 9
      vertex -17.3974 -19.3218 12
      vertex -13 -22.5167 12
    endloop
  endfacet
  facet normal 0.587785 0.809017 0
    outer loop
      vertex -17.3974 -19.3218 12
      vertex -13 -22.5167 9
      vertex -17.3974 -19.3218 9
    endloop
  endfacet
  facet normal 0 1 -0
    outer loop
      vertex 2.71774 -25.8576 9
      vertex -2.71774 -25.8576 12
      vertex 2.71774 -25.8576 12
    endloop
  endfacet
  facet normal 0 1 0
    outer loop
      vertex -2.71774 -25.8576 12
      vertex 2.71774 -25.8576 9
      vertex -2.71774 -25.8576 9
    endloop
  endfacet
  facet normal 0.743153 -0.669121 0
    outer loop
      vertex -21.0344 15.2824 12
      vertex -17.3974 19.3218 9
      vertex -17.3974 19.3218 12
    endloop
  endfacet
  facet normal 0.743153 -0.669121 0
    outer loop
      vertex -17.3974 19.3218 9
      vertex -21.0344 15.2824 12
      vertex -21.0344 15.2824 9
    endloop
  endfacet
  facet normal 0.994521 -0.104535 0
    outer loop
      vertex -26 0 12
      vertex -25.4318 5.4057 9
      vertex -25.4318 5.4057 12
    endloop
  endfacet
  facet normal 0.994521 -0.104535 0
    outer loop
      vertex -25.4318 5.4057 9
      vertex -26 0 12
      vertex -26 0 9
    endloop
  endfacet
  facet normal 0.994521 0.104535 0
    outer loop
      vertex -25.4318 -5.4057 12
      vertex -26 0 9
      vertex -26 0 12
    endloop
  endfacet
  facet normal 0.994521 0.104535 0
    outer loop
      vertex -26 0 9
      vertex -25.4318 -5.4057 12
      vertex -25.4318 -5.4057 9
    endloop
  endfacet
  facet normal -0.406735 0.913546 0
    outer loop
      vertex 13 -22.5167 9
      vertex 8.03444 -24.7275 12
      vertex 13 -22.5167 12
    endloop
  endfacet
  facet normal -0.406735 0.913546 0
    outer loop
      vertex 8.03444 -24.7275 12
      vertex 13 -22.5167 9
      vertex 8.03444 -24.7275 9
    endloop
  endfacet
  facet normal -0.866018 0.500013 0
    outer loop
      vertex 21.0344 -15.2824 9
      vertex 23.7522 -10.5752 12
      vertex 23.7522 -10.5752 9
    endloop
  endfacet
  facet normal -0.866018 0.500013 0
    outer loop
      vertex 23.7522 -10.5752 12
      vertex 21.0344 -15.2824 9
      vertex 21.0344 -15.2824 12
    endloop
  endfacet
  facet normal 0 -1 0
    outer loop
      vertex -2.71774 25.8576 9
      vertex 2.71774 25.8576 12
      vertex -2.71774 25.8576 12
    endloop
  endfacet
  facet normal 0 -1 -0
    outer loop
      vertex 2.71774 25.8576 12
      vertex -2.71774 25.8576 9
      vertex 2.71774 25.8576 9
    endloop
  endfacet
  facet normal -0.95106 0.309005 0
    outer loop
      vertex 23.7522 -10.5752 9
      vertex 25.4318 -5.4057 12
      vertex 25.4318 -5.4057 9
    endloop
  endfacet
  facet normal -0.95106 0.309005 0
    outer loop
      vertex 25.4318 -5.4057 12
      vertex 23.7522 -10.5752 9
      vertex 23.7522 -10.5752 12
    endloop
  endfacet
  facet normal 0.95106 0.309005 0
    outer loop
      vertex -23.7522 -10.5752 12
      vertex -25.4318 -5.4057 9
      vertex -25.4318 -5.4057 12
    endloop
  endfacet
  facet normal 0.95106 0.309005 0
    outer loop
      vertex -25.4318 -5.4057 9
      vertex -23.7522 -10.5752 12
      vertex -23.7522 -10.5752 9
    endloop
  endfacet
  facet normal 0.207912 0.978148 -0
    outer loop
      vertex -2.71774 -25.8576 9
      vertex -8.03444 -24.7275 12
      vertex -2.71774 -25.8576 12
    endloop
  endfacet
  facet normal 0.207912 0.978148 0
    outer loop
      vertex -8.03444 -24.7275 12
      vertex -2.71774 -25.8576 9
      vertex -8.03444 -24.7275 9
    endloop
  endfacet
  facet normal 0.95106 -0.309005 0
    outer loop
      vertex -25.4318 5.4057 12
      vertex -23.7522 10.5752 9
      vertex -23.7522 10.5752 12
    endloop
  endfacet
  facet normal 0.95106 -0.309005 0
    outer loop
      vertex -23.7522 10.5752 9
      vertex -25.4318 5.4057 12
      vertex -25.4318 5.4057 9
    endloop
  endfacet
  facet normal -0.207912 -0.978148 0
    outer loop
      vertex 2.71774 25.8576 9
      vertex 8.03444 24.7275 12
      vertex 2.71774 25.8576 12
    endloop
  endfacet
  facet normal -0.207912 -0.978148 -0
    outer loop
      vertex 8.03444 24.7275 12
      vertex 2.71774 25.8576 9
      vertex 8.03444 24.7275 9
    endloop
  endfacet
  facet normal -0.587785 -0.809017 0
    outer loop
      vertex 13 22.5167 9
      vertex 17.3974 19.3218 12
      vertex 13 22.5167 12
    endloop
  endfacet
  facet normal -0.587785 -0.809017 -0
    outer loop
      vertex 17.3974 19.3218 12
      vertex 13 22.5167 9
      vertex 17.3974 19.3218 9
    endloop
  endfacet
  facet normal 0.207912 -0.978148 0
    outer loop
      vertex -8.03444 24.7275 9
      vertex -2.71774 25.8576 12
      vertex -8.03444 24.7275 12
    endloop
  endfacet
  facet normal 0.207912 -0.978148 0
    outer loop
      vertex -2.71774 25.8576 12
      vertex -8.03444 24.7275 9
      vertex -2.71774 25.8576 9
    endloop
  endfacet
  facet normal 0.743153 0.669121 0
    outer loop
      vertex -17.3974 -19.3218 12
      vertex -21.0344 -15.2824 9
      vertex -21.0344 -15.2824 12
    endloop
  endfacet
  facet normal 0.743153 0.669121 0
    outer loop
      vertex -21.0344 -15.2824 9
      vertex -17.3974 -19.3218 12
      vertex -17.3974 -19.3218 9
    endloop
  endfacet
  facet normal 0.866018 0.500013 0
    outer loop
      vertex -21.0344 -15.2824 12
      vertex -23.7522 -10.5752 9
      vertex -23.7522 -10.5752 12
    endloop
  endfacet
  facet normal 0.866018 0.500013 0
    outer loop
      vertex -23.7522 -10.5752 9
      vertex -21.0344 -15.2824 12
      vertex -21.0344 -15.2824 9
    endloop
  endfacet
  facet normal -0.207912 0.978148 0
    outer loop
      vertex 8.03444 -24.7275 9
      vertex 2.71774 -25.8576 12
      vertex 8.03444 -24.7275 12
    endloop
  endfacet
  facet normal -0.207912 0.978148 0
    outer loop
      vertex 2.71774 -25.8576 12
      vertex 8.03444 -24.7275 9
      vertex 2.71774 -25.8576 9
    endloop
  endfacet
  facet normal -0.743153 0.669121 0
    outer loop
      vertex 17.3974 -19.3218 9
      vertex 21.0344 -15.2824 12
      vertex 21.0344 -15.2824 9
    endloop
  endfacet
  facet normal -0.743153 0.669121 0
    outer loop
      vertex 21.0344 -15.2824 12
      vertex 17.3974 -19.3218 9
      vertex 17.3974 -19.3218 12
    endloop
  endfacet
  facet normal 0.406735 0.913546 -0
    outer loop
      vertex -8.03444 -24.7275 9
      vertex -13 -22.5167 12
      vertex -8.03444 -24.7275 12
    endloop
  endfacet
  facet normal 0.406735 0.913546 0
    outer loop
      vertex -13 -22.5167 12
      vertex -8.03444 -24.7275 9
      vertex -13 -22.5167 9
    endloop
  endfacet
  facet normal 0.866018 -0.500013 0
    outer loop
      vertex -23.7522 10.5752 12
      vertex -21.0344 15.2824 9
      vertex -21.0344 15.2824 12
    endloop
  endfacet
  facet normal 0.866018 -0.500013 0
    outer loop
      vertex -21.0344 15.2824 9
      vertex -23.7522 10.5752 12
      vertex -23.7522 10.5752 9
    endloop
  endfacet
endsolid OpenSCAD_Model
